{"title":"The.Prince(2014)1080p.BluRay.H264.AAC.Raven","uid":11221703,"size":1364781345,"categoryP":"video","categoryS":"hd___movies","magnet":"?xt=urn:btih:68998fe5090ab70e7f67dfb2a75d0c2a7f7f4ac8&amp;dn=The.Prince%282014%291080p.BluRay.H264.AAC.Raven&amp;tr=udp%3A%2F%2Ftracker.openbittorrent.com%3A80&amp;tr=udp%3A%2F%2Fopen.demonii.com%3A1337&amp;tr=udp%3A%2F%2Ftracker.coppersurfer.tk%3A6969&amp;tr=udp%3A%2F%2Fexodus.desync.com%3A6969","seeders":4,"leechers":2,"uploader":"Raven1969","files":-1,"time":1413392644,"description":"The.Prince(2014)1080p.BluRay.H264.AAC.Raven.mp4\n\n\n\n\n\nEnglish, Spanish, Danish, Indonesian, Persian, Romanian, Vietnamese, Arabic  and Czech subs included. \n\n\n\nScreen images:\n\n\n &lt;a href=&quot;\nhttp://i.imgur.com/fSEdk7o.png&quot; rel=&quot;nofollow&quot; target=&quot;_NEW&quot;&gt;\nhttp://i.imgur.com/fSEdk7o.png&lt;/a&gt;\n\n &lt;a href=&quot;\nhttp://i.imgur.com/PfnehXO.png&quot; rel=&quot;nofollow&quot; target=&quot;_NEW&quot;&gt;\nhttp://i.imgur.com/PfnehXO.png&lt;/a&gt;\n\n &lt;a href=&quot;\nhttp://i.imgur.com/betZMB4.png&quot; rel=&quot;nofollow&quot; target=&quot;_NEW&quot;&gt;\nhttp://i.imgur.com/betZMB4.png&lt;/a&gt;\n\n &lt;a href=&quot;\nhttp://i.imgur.com/bf4aqej.png&quot; rel=&quot;nofollow&quot; target=&quot;_NEW&quot;&gt;\nhttp://i.imgur.com/bf4aqej.png&lt;/a&gt;\n\n &lt;a href=&quot;\nhttp://i.imgur.com/6AD9mtS.png&quot; rel=&quot;nofollow&quot; target=&quot;_NEW&quot;&gt;\nhttp://i.imgur.com/6AD9mtS.png&lt;/a&gt;\n\n &lt;a href=&quot;\nhttp://i.imgur.com/ikHaiPm.png&quot; rel=&quot;nofollow&quot; target=&quot;_NEW&quot;&gt;\nhttp://i.imgur.com/ikHaiPm.png&lt;/a&gt;\n &lt;a href=&quot;\nhttp://www.imdb.com/title/tt1085492&quot; rel=&quot;nofollow&quot; target=&quot;_NEW&quot;&gt;\nhttp://www.imdb.com/title/tt1085492&lt;/a&gt;\n\n\n\n\nIMDB Rating:  4.5\n\n\n\n\nStoryline:\n\nWhen his daughter is kidnapped, a retired assassin is drawn back into the life he gave up. To rescue her, he must confront his former rival.\n\nA mechanic learns that his daughter, whom he thinks is at college, has dropped out. He tries to call her but when someone else answers the phone, he goes to where she's staying and finds a photo of his daughter with another girl, so he looks for her and asks her where his daughter is. She says that his daughter hooked with a guy whose from New Orleans. So they go there to find him. When some men refuse to answer his questions they beat him but he fights back, which the girl is amazed that he can do. Eventually they find the guy who tells them where his daughter might be. But while on their way some men shoot at them. He learns that they work for a man named Omar who wants him. He still tries to find his daughter while Omar sends his best men to get him.\n\n\n\n\nGeneral\nFormat                                   : MPEG-4\nFormat profile                           : Base Media\nCodec ID                                 : isom\nFile size                                : 1.26 GiB\nDuration                                 : 1h 30mn\nOverall bit rate mode                    : Variable\nOverall bit rate                         : 1 996 Kbps\nEncoded date                             : UTC 2014-10-15 08:42:17\nTagged date                              : UTC 2014-10-15 08:42:17\n\nVideo\nID                                       : 1\nFormat                                   : AVC\nFormat/Info                              : Advanced Video Codec\nFormat profile                           : &lt;a class=&quot;__cf_email__&quot; href=&quot;/cdn-cgi/l/email-protection&quot; data-cfemail=&quot;733b1a141b333f475d43&quot;&gt;[email&amp;#160;protected]&lt;/a&gt;&lt;script cf-hash='f9e31' type=&quot;text/javascript&quot;&gt;\n/* &lt;![CDATA[ */!function(){try{var t=&quot;currentScript&quot;in document?document.currentScript:function(){for(var t=document.getElementsByTagName(&quot;script&quot;),e=t.length;e--;)if(t[e].getAttribute(&quot;cf-hash&quot;))return t[e]}();if(t&amp;&amp;t.previousSibling){var e,r,n,i,c=t.previousSibling,a=c.getAttribute(&quot;data-cfemail&quot;);if(a){for(e=&quot;&quot;,r=parseInt(a.substr(0,2),16),n=2;a.length-n;n+=2)i=parseInt(a.substr(n,2),16)^r,e+=String.fromCharCode(i);e=document.createTextNode(e),c.parentNode.replaceChild(e,c)}}}catch(u){}}();/* ]]&gt; */&lt;/script&gt;\nFormat settings, CABAC                   : Yes\nFormat settings, ReFrames                : 5 frames\nCodec ID                                 : avc1\nCodec ID/Info                            : Advanced Video Coding\nDuration                                 : 1h 30mn\nBit rate                                 : 1 900 Kbps\nMaximum bit rate                         : 14.0 Mbps\nWidth                                    : 1 920 pixels\nHeight                                   : 800 pixels\nDisplay aspect ratio                     : 2.40:1\nFrame rate mode                          : Constant\nFrame rate                               : 23.976 fps\nColor space                              : YUV\nChroma subsampling                       : 4:2:0\nBit depth                                : 8 bits\nScan type                                : Progressive\nBits/(Pixel*Frame)                       : 0.052\nStream size                              : 1.20 GiB (95%)\nWriting library                          : x264 core 132 \nEncoded date                             : UTC 2014-10-15 08:42:17\nTagged date                              : UTC 2014-10-15 08:42:43\n\nAudio\nID                                       : 2\nFormat                                   : AAC\nFormat/Info                              : Advanced Audio Codec\nFormat profile                           : LC\nCodec ID                                 : 40\nDuration                                 : 1h 30mn\nBit rate mode                            : Variable\nBit rate                                 : 92.0 Kbps\nMaximum bit rate                         : 152 Kbps\nChannel(s)                               : 2 channels\nChannel positions                        : Front: L R\nSampling rate                            : 48.0 KHz\nCompression mode                         : Lossy\nStream size                              : 59.7 MiB (5%)\nEncoded date                             : UTC 2014-10-15 07:11:09\nTagged date                              : UTC 2014-10-15 08:42:43\n\n\nPLEASE  SEED FOR AS LONG AS POSSIBLE TO KEEP THE TORRENT ALIVE :-)","torrent":{"xt":"urn:btih:68998fe5090ab70e7f67dfb2a75d0c2a7f7f4ac8","amp;dn":"The.Prince%282014%291080p.BluRay.H264.AAC.Raven","amp;tr":["udp%3A%2F%2Ftracker.openbittorrent.com%3A80","udp%3A%2F%2Fopen.demonii.com%3A1337","udp%3A%2F%2Ftracker.coppersurfer.tk%3A6969","udp%3A%2F%2Fexodus.desync.com%3A6969"],"infoHash":"68998fe5090ab70e7f67dfb2a75d0c2a7f7f4ac8","infoHashBuffer":{"type":"Buffer","data":[104,153,143,229,9,10,183,14,127,103,223,178,167,93,12,42,127,127,74,200]},"announce":[],"urlList":[]}}